<?xml version="1.0" encoding="utf-8"?>
<?xml-stylesheet type="text/xsl" href="rss1.xsl"?>
<rss version="2.0" xmlns:atom="http://www.w3.org/2005/Atom" xmlns:content="http://purl.org/rss/1.0/modules/content/" xmlns:dc="http://purl.org/dc/elements/1.1/" xmlns:media="http://search.yahoo.com/mrss/">
<channel>
 <title>Getty</title>
 <link>http://www.gettyimg.com/</link>
 <atom:link href="http://www.gettyimg.com/" rel="self" type="application/rss+xml" />

 
                <item>
                <title><![CDATA[【PRORES HD】P!NK - Trustfall |Master 1080|]]></title>
                <link><![CDATA[https://sharemania.us/threads/p-nk-trustfall-master-1080.227421/]]></link>
                <description><![CDATA[<article>
<blockquote class="messageText SelectQuoteContainer ugc baseHtml">
<div style="text-align: center"><img src="https://i.imgur.com/uSzta0B.gif" class="bbCodeImage LbImage" alt="[​IMG]" data-url="https://i.imgur.com/uSzta0B.gif" style=""><br>
<br>
​</div>
<div class="ToggleTriggerAnchor bbCodeSpoilerContainer">
<button type="button" class="button bbCodeSpoilerButton ToggleTrigger Tooltip JsOnly" data-target="> .SpoilerTarget"><span>Spoiler: <span class="SpoilerTitle">MASTER</span></span></button>
<div class="SpoilerTarget bbCodeSpoilerText">
<div class="bbCodeBlock bbCodeCode">
<div class="type">Code:</div>
<pre>Format                                   : MPEG-4
Format profile                           : QuickTime
Codec ID                                 : qt   2005.03 (qt  )
File size                                : 696 MiB
Duration                                 : 4 min 43 s
Overall bit rate mode                    : Variable
Overall bit rate                         : 20.6 Mb/s
Encoded date                             : UTC 2023-01-17 10:03:26
Tagged date                              : UTC 2023-01-17 10:03:26

Video
ID                                       : 1
Format                                   : AVC
Format/Info                              : Advanced Video Codec
Format profile                           : Baseline@L4
Format settings                          : 1 Ref Frames
Format settings, CABAC                   : No
Format settings, Reference frames        : 1 frame
Format settings, GOP                     : M=1, N=33
Codec ID                                 : avc1
Codec ID/Info                            : Advanced Video Coding
Duration                                 : 4 min 43 s
Bit rate mode                            : Variable
Bit rate                                 : 19.0 Mb/s
Maximum bit rate                         : 20.0 Mb/s
Width                                    : 1 920 pixels
Height                                   : 1 080 pixels
Display aspect ratio                     : 16:9
Frame rate mode                          : Constant
Frame rate                               : 23.976 (24000/1001) FPS
Standard                                 : NTSC
Color space                              : YUV
Chroma subsampling                       : 4:2:0
Bit depth                                : 8 bits
Scan type                                : Progressive
Bits/(Pixel*Frame)                       : 0.382
Stream size                              : 643 MiB (93%)
Language                                 : English
Encoded date                             : UTC 2023-01-17 10:03:26
Tagged date                              : UTC 2023-01-17 10:03:26
Color range                              : Limited
Color primaries                          : BT.709
Transfer characteristics                 : BT.709
Matrix coefficients                      : BT.709
Codec configuration box                  : avcC

Audio
ID                                       : 3
Format                                   : PCM
Format settings                          : Little / Signed
Codec ID                                 : lpcm
Duration                                 : 4 min 43 s
Bit rate mode                            : Constant
Bit rate                                 : 1 536 kb/s
Channel(s)                               : 2 channels
Channel layout                           : L R
Sampling rate                            : 48.0 kHz
Bit depth                                : 16 bits
Stream size                              : 52.0 MiB (7%)
Language                                 : English
Encoded date                             : UTC 2023-01-17 10:03:26
Tagged date                              : UTC 2023-01-17 10:03:26

Other
ID                                       : 2
Type                                     : Time code
Format                                   : QuickTime TC
Duration                                 : 4 min 43 s
Frame rate                               : 23.976 (24000/1001) FPS
Time code of first frame                 : 00:00:00:00
Time code, striped                       : Yes
Title                                    : untitled
Language                                 : English
Encoded date                             : UTC 2023-01-17 10:03:26
Tagged date                              : UTC 2023-01-17 10:03:26</pre>
</div><div style="text-align: center">​</div></div>
</div><div style="text-align: center"><br>
<br>
<br>
<div class="bbCodeBlock bbCodeVfcHH HiddenContent">
<div class="attribution type">Hidden Content:</div>
<blockquote>You must reply before you can see the hidden data contained here.</blockquote>
</div></div>
<div class="messageTextEndMarker">&nbsp;</div>
</blockquote>
</article>]]></description>
                <author><![CDATA[fstambuk]]></author>
                </item>

                
                <item>
                <title><![CDATA[【Singles (lossless)】FLAC - Imagine Dragons - Children of the Sky (a Starfield Song) | Qobuz Hi-Res 24bit / 48.0kHz]]></title>
                <link><![CDATA[https://sharemania.us/threads/imagine-dragons-children-of-the-sky-a-starfield-song-qobuz-hi-res-24bit-48-0khz.227420/]]></link>
                <description><![CDATA[<article>
<blockquote class="messageText SelectQuoteContainer ugc baseHtml">
<div style="text-align: center"><img src="https://static.qobuz.com/images/covers/sc/y2/ubb7uz6puy2sc_600.jpg" class="bbCodeImage LbImage" alt="[​IMG]" data-url="https://static.qobuz.com/images/covers/sc/y2/ubb7uz6puy2sc_600.jpg" style=""><br>
<div class="bbCodeBlock bbCodeVfcHH HiddenContent">
<div class="attribution type">Hidden Content:</div>
<blockquote>You must reply before you can see the hidden data contained here.</blockquote>
</div></div>
<div class="messageTextEndMarker">&nbsp;</div>
</blockquote>
</article>]]></description>
                <author><![CDATA[Yennefer]]></author>
                </item>

                
                <item>
                <title><![CDATA[【Albums (lossy)】MP3 - Laura Pausini - La Mejor de Laura Pausini (2000) (2023) [Fan Made]]]></title>
                <link><![CDATA[https://sharemania.us/threads/laura-pausini-la-mejor-de-laura-pausini-2000-2023-fan-made.227419/]]></link>
                <description><![CDATA[<article>
<blockquote class="messageText SelectQuoteContainer ugc baseHtml">
<div style="text-align: center"><img src="https://i.postimg.cc/m2cQP0kY/Capa-espan-by-nov-k.jpg" class="bbCodeImage LbImage" alt="[​IMG]" data-url="https://i.postimg.cc/m2cQP0kY/Capa-espan-by-nov-k.jpg" style=""> ​</div>01 La Soledad<br>
02 Se Fué<br>
03 ¿Por Qué No Volverán<br>
04 Amores Extraños<br>
05 Gente<br>
06 Él No Está Por Ti<br>
07 Las Chicas<br>
08 Inolvidable<br>
09 Las Cosas Que Vives<br>
10 Escucha A Tu Corazón<br>
11 Dos Enamorados<br>
12 Cuando Se Ama<br>
13 Angeles En El Cielo3<br>
14 Emergencia De Amor<br>
15 En Ausencia De Ti<br>
16 Mi Respuesta<br>
17 Me Siento Tan Bien<br>
18 Entre Tú Y Mil Mares<br>
19 Un Error De Los Grandes<br>
20 Volveré Junto A Ti<br>
<br>
Extra:<br>
<br>
21 It's Not Goodbye<br>
22 Everyday Is Monday<br>
23 La Soledad<br>
24 I Need Love<br>
25 Me Abandono A Ti<br>
26 Like A Flower (Mi Abandono A Ti) (Sartori &amp; D'LuxeDJ Remix) Madonna &amp; Laura Pausini<br>
<br>
<div style="text-align: center">
<div class="bbCodeBlock bbCodeVfcHH HiddenContent">
<div class="attribution type">Hidden Content:</div>
<blockquote>You must either reply or click 'Like' to see the hidden information contained here.</blockquote>
</div></div>
<div class="messageTextEndMarker">&nbsp;</div>
</blockquote>
</article>]]></description>
                <author><![CDATA[Fan Made]]></author>
                </item>

                </channel></rss>